HIERARCHY
ROOT Hips
{
 OFFSET 0.000000 0.000000 0.000000
 CHANNELS 6 Xposition Yposition Zposition Yrotation Xrotation Zrotation
 JOINT Chest
 {
  OFFSET 0.000000 9.585900 0.002600
  CHANNELS 3 Yrotation Xrotation Zrotation
  JOINT Chest2
  {
   OFFSET 0.000000 9.601200 -0.005300
   CHANNELS 3 Yrotation Xrotation Zrotation
   JOINT Chest3
   {
    OFFSET 0.000000 9.561800 0.000000
    CHANNELS 3 Yrotation Xrotation Zrotation
    JOINT Chest4
    {
     OFFSET 0.000000 9.552100 0.000000
     CHANNELS 3 Yrotation Xrotation Zrotation
     JOINT Neck
     {
      OFFSET 0.000000 14.453000 0.000000
      CHANNELS 3 Yrotation Xrotation Zrotation
      JOINT Head
      {
       OFFSET 0.000000 8.936500 -0.011300
       CHANNELS 3 Yrotation Xrotation Zrotation
       End Site
       {
        OFFSET 0.000000 17.073600 -0.006000
       }
      }
     }
     JOINT RightCollar
     {
      OFFSET -2.921100 9.558500 0.000000
      CHANNELS 3 Yrotation Xrotation Zrotation
      JOINT RightShoulder
      {
       OFFSET -13.519700 0.000000 0.000000
       CHANNELS 3 Yrotation Xrotation Zrotation
       JOINT RightElbow
       {
        OFFSET 0.000000 -29.696600 0.000000
        CHANNELS 3 Yrotation Xrotation Zrotation
        JOINT RightWrist
        {
         OFFSET 0.000000 -24.004700 0.000000
         CHANNELS 3 Yrotation Xrotation Zrotation
         End Site
         {
          OFFSET 0.000000 -17.728500 0.000000
         }
        }
       }
      }
     }
     JOINT LeftCollar
     {
      OFFSET 2.921100 9.558500 0.000000
      CHANNELS 3 Yrotation Xrotation Zrotation
      JOINT LeftShoulder
      {
       OFFSET 13.519700 0.000000 0.000000
       CHANNELS 3 Yrotation Xrotation Zrotation
       JOINT LeftElbow
       {
        OFFSET 0.000000 -29.696600 0.000000
        CHANNELS 3 Yrotation Xrotation Zrotation
        JOINT LeftWrist
        {
         OFFSET 0.000000 -24.004700 0.000000
         CHANNELS 3 Yrotation Xrotation Zrotation
         End Site
         {
          OFFSET 0.000000 -17.728500 0.000000
         }
        }
       }
      }
     }
    }
   }
  }
 }
 JOINT RightHip
 {
  OFFSET -7.771700 -0.012900 -0.001300
  CHANNELS 3 Yrotation Xrotation Zrotation
  JOINT RightKnee
  {
   OFFSET 0.000000 -40.869800 0.001200
   CHANNELS 3 Yrotation Xrotation Zrotation
   JOINT RightAnkle
   {
    OFFSET 0.000000 -39.717900 0.002100
    CHANNELS 3 Yrotation Xrotation Zrotation
    JOINT RightToe
    {
     OFFSET 0.000000 -4.965400 11.033500
     CHANNELS 3 Yrotation Xrotation Zrotation
     End Site
     {
      OFFSET 0.000000 -1.423100 5.872300
     }
    }
   }
  }
 }
 JOINT LeftHip
 {
  OFFSET 7.771700 -0.012900 -0.001300
  CHANNELS 3 Yrotation Xrotation Zrotation
  JOINT LeftKnee
  {
   OFFSET 0.000000 -40.869800 0.001200
   CHANNELS 3 Yrotation Xrotation Zrotation
   JOINT LeftAnkle
   {
    OFFSET 0.000000 -39.717900 0.002100
    CHANNELS 3 Yrotation Xrotation Zrotation
    JOINT LeftToe
    {
     OFFSET 0.000000 -4.965400 11.033500
     CHANNELS 3 Yrotation Xrotation Zrotation
     End Site
     {
      OFFSET 0.000000 -1.423100 5.872300
     }
    }
   }
  }
 }
}
MOTION
Frames: 8
Frame Time: 0.008333
7.392044 49.884660 44.694203 173.575038 -31.980075 -6.574095 5.944938 17.945367 6.458689 0.621131 2.185463 0.541448 1.029920 3.633738 0.933166 5.014144 15.671633 4.658252 -1.584297 16.607232 0.014732 -2.939829 -4.905766 0.628185 -2.419066 -5.053819 -6.123636 7.060316 -1.511428 -5.159581 173.613281 -77.088848 -175.155772 13.524412 -3.377544 75.915690 -11.217331 -2.856281 -0.477711 7.487096 -3.110658 6.127590 -178.874787 -77.335438 177.950304 -12.995054 14.055534 -101.013204 -1.377328 -48.754025 10.233308 -99.400671 85.447884 -87.982218 -1.138646 -10.624286 -4.047837 -0.233190 0.801413 -0.097664 -9.939998 -52.209578 17.205250 -149.827793 80.616490 -157.819133 0.046080 -15.871712 7.348582 -0.349015 -0.780176 -0.096204
7.392374 49.891189 44.696634 173.558546 -31.957222 -6.553629 5.946952 17.946636 6.458710 0.626986 2.185166 0.543100 1.021307 3.647672 0.948248 5.005847 15.653781 4.646431 -1.593291 16.571631 0.003524 -2.947714 -4.972183 0.572591 -2.314149 -5.138768 -6.206194 7.185649 -1.487161 -5.433119 177.602849 -76.824835 -178.709956 13.155957 -3.459900 76.314246 -11.254926 -2.918079 -0.454024 7.455965 -3.125174 6.454040 175.699603 -77.176542 -177.283868 -12.840007 14.288751 -101.428039 -1.408332 -48.779754 10.248131 -99.419965 85.447194 -88.020659 -1.154811 -10.612065 -4.060622 -0.209652 0.791176 -0.097313 -9.915200 -52.230918 17.202493 -149.839884 80.624134 -157.839552 0.021755 -15.869651 7.356820 -0.340576 -0.780454 -0.103048
7.391248 49.895815 44.701653 173.542064 -31.917606 -6.530250 5.942970 17.928236 6.450120 0.624521 2.189963 0.546856 1.017612 3.645844 0.950997 5.000125 15.645613 4.645929 -1.598856 16.543557 -0.015408 -2.942171 -4.987168 0.548255 -2.205090 -5.215786 -6.286278 7.296971 -1.479531 -5.703807 -178.510577 -76.525362 177.839398 12.771815 -3.514899 76.697223 -11.285680 -2.982839 -0.432694 7.431361 -3.140213 6.775010 170.333977 -76.925834 -172.584375 -12.665260 14.548021 -101.826007 -1.441076 -48.823305 10.259457 -99.460020 85.452949 -88.090277 -1.145567 -10.607573 -4.065837 -0.248330 0.788177 -0.103194 -9.872573 -52.273981 17.183965 -149.883971 80.633763 -157.878297 -0.012761 -15.869638 7.366344 -0.332308 -0.774117 -0.108247
7.393372 49.901939 44.705108 173.527366 -31.894941 -6.529417 5.949945 17.912953 6.458974 0.622892 2.199004 0.557357 1.016886 3.635602 0.941210 4.981620 15.647636 4.657831 -1.602182 16.516218 -0.033078 -2.939571 -5.037873 0.512914 -2.093710 -5.286336 -6.362637 7.395289 -1.489909 -5.968801 -174.783681 -76.192987 174.552618 12.382120 -3.557989 77.064469 -11.309939 -3.049433 -0.413451 7.418028 -3.155584 7.087551 165.079439 -76.582534 -168.001391 -12.485069 14.844415 -102.209269 -1.467544 -48.846042 10.281820 -99.402714 85.442321 -88.035190 -1.131004 -10.599932 -4.085474 -0.235389 0.784631 -0.100087 -9.865496 -52.295062 17.194311 -149.984398 80.644729 -157.973500 -0.021929 -15.876881 7.364729 -0.334313 -0.769128 -0.123730
7.394291 49.908071 44.707731 173.519970 -31.876996 -6.527255 5.947278 17.903083 6.460051 0.614467 2.205898 0.561582 1.023596 3.627559 0.937661 4.953786 15.645524 4.669654 -1.587843 16.503911 -0.056764 -2.970783 -5.168014 0.478805 -1.979510 -5.349324 -6.437898 7.486112 -1.515620 -6.228478 -171.229285 -75.828524 171.435684 11.999346 -3.609187 77.422489 -11.325042 -3.116962 -0.398618 7.417491 -3.170706 7.386700 160.036847 -76.148982 -163.633155 -12.303241 15.170337 -102.574434 -1.521460 -48.858448 10.307745 -99.394990 85.429732 -88.042543 -1.094191 -10.598209 -4.113586 -0.223350 0.782487 -0.095963 -9.862186 -52.310841 17.196933 -150.112723 80.657931 -158.096422 -0.039423 -15.881391 7.352970 -0.337398 -0.764398 -0.121858
7.394351 49.914192 44.709330 173.507014 -31.865572 -6.518484 5.914790 17.915897 6.462698 0.602456 2.203822 0.565038 1.048661 3.620739 0.924541 4.935705 15.632014 4.673895 -1.596419 16.476434 -0.070962 -2.960828 -5.203985 0.443165 -1.900736 -5.372385 -6.491236 7.601888 -1.582433 -6.503416 -167.874180 -75.425089 168.500152 11.630326 -3.673364 77.784253 -11.336311 -3.182708 -0.386598 7.424123 -3.186161 7.666985 155.352178 -75.640662 -159.609414 -12.102655 15.510161 -102.916395 -1.556388 -48.864467 10.330573 -99.344853 85.415964 -88.001843 -1.113616 -10.610640 -4.115758 -0.207970 0.789737 -0.108464 -9.849166 -52.322039 17.187162 -150.220333 80.667116 -158.192768 -0.056291 -15.882274 7.340411 -0.327852 -0.763905 -0.122735
7.397305 49.919970 44.711380 173.491651 -31.853522 -6.528093 5.896855 17.912184 6.485112 0.607323 2.198719 0.562335 1.042236 3.620933 0.922883 4.925424 15.618717 4.678070 -1.609838 16.449908 -0.083180 -2.945082 -5.215670 0.408090 -1.823354 -5.386309 -6.544543 7.709507 -1.656858 -6.763046 -164.765903 -74.983379 165.784987 11.275688 -3.752563 78.158898 -11.347897 -3.246631 -0.375966 7.430766 -3.204223 7.928888 151.091446 -75.077803 -155.985492 -11.873618 15.852459 -103.230231 -1.593076 -48.869895 10.364901 -99.228232 85.391744 -87.874071 -1.102121 -10.612095 -4.149724 -0.213116 0.789147 -0.097965 -9.858813 -52.333083 17.204866 -150.267318 80.668803 -158.229087 -0.036534 -15.888230 7.333044 -0.339292 -0.762719 -0.130959
7.398214 49.924635 44.713209 173.483417 -31.837757 -6.531353 5.876227 17.902613 6.494427 0.605032 2.194962 0.562611 1.041274 3.616867 0.927016 4.909671 15.606289 4.678546 -1.618300 16.432091 -0.097108 -2.918334 -5.196164 0.377965 -1.649768 -5.478057 -6.632927 7.725009 -1.645864 -6.964291 -161.927290 -74.508786 163.311742 10.936667 -3.848244 78.548479 -11.345876 -3.290100 -0.377168 7.428053 -3.249146 8.179997 147.239164 -74.471466 -152.748291 -11.623043 16.190656 -103.517686 -1.609009 -48.882543 10.377218 -99.157371 85.379449 -87.794132 -1.093126 -10.618736 -4.163676 -0.194014 0.796473 -0.096977 -9.875278 -52.350162 17.205352 -150.377653 80.674166 -158.332277 -0.003414 -15.887648 7.323087 -0.361203 -0.767693 -0.144025
